<svg xmlns="http://www.w3.org/2000/svg" viewBox="0 0 141.73 141.73"><defs><style>.cls-1{fill:#3cb474;}</style></defs><g id="Layer_6" data-name="Layer 6"><path class="cls-1" d="M124.72,0H17A17,17,0,0,0,0,17V124.72a17,17,0,0,0,17,17H124.72a17,17,0,0,0,17-17V17A17,17,0,0,0,124.72,0ZM100.24,32.08A9.94,9.94,0,1,1,90.13,42,10,10,0,0,1,100.24,32.08ZM120.47,70.9c0,26.89-22.22,48.69-49.6,48.69S21.26,97.77,21.26,70.87,43.47,22.15,70.87,22.14h0a9.94,9.94,0,1,1,0,19.87h-.25c-16.12.13-29.15,13-29.15,28.87s13.16,28.87,29.4,28.87a29.15,29.15,0,0,0,29.39-28.65,1.64,1.64,0,0,1,0-.22,10.12,10.12,0,0,1,20.23,0Z"/></g></svg>