<svg id="wave" style="transform:rotate(0deg); transition: 0.3s" viewBox="0 0 1440 490" version="1.1" xmlns="http://www.w3.org/2000/svg"><defs><linearGradient id="sw-gradient-0" x1="0" x2="0" y1="1" y2="0"><stop stop-color="rgba(33, 150, 243, 1)" offset="0%"></stop><stop stop-color="rgba(119.707, 205.956, 230.311, 1)" offset="100%"></stop></linearGradient></defs><path style="transform:translate(0, 0px); opacity:1" fill="url(#sw-gradient-0)" d="M0,49L40,40.8C80,33,160,16,240,49C320,82,400,163,480,228.7C560,294,640,343,720,318.5C800,294,880,196,960,179.7C1040,163,1120,229,1200,245C1280,261,1360,229,1440,179.7C1520,131,1600,65,1680,40.8C1760,16,1840,33,1920,49C2000,65,2080,82,2160,122.5C2240,163,2320,229,2400,236.8C2480,245,2560,196,2640,163.3C2720,131,2800,114,2880,147C2960,180,3040,261,3120,253.2C3200,245,3280,147,3360,114.3C3440,82,3520,114,3600,179.7C3680,245,3760,343,3840,359.3C3920,376,4000,310,4080,236.8C4160,163,4240,82,4320,57.2C4400,33,4480,65,4560,98C4640,131,4720,163,4800,179.7C4880,196,4960,196,5040,212.3C5120,229,5200,261,5280,302.2C5360,343,5440,392,5520,383.8C5600,376,5680,310,5720,277.7L5760,245L5760,490L5720,490C5680,490,5600,490,5520,490C5440,490,5360,490,5280,490C5200,490,5120,490,5040,490C4960,490,4880,490,4800,490C4720,490,4640,490,4560,490C4480,490,4400,490,4320,490C4240,490,4160,490,4080,490C4000,490,3920,490,3840,490C3760,490,3680,490,3600,490C3520,490,3440,490,3360,490C3280,490,3200,490,3120,490C3040,490,2960,490,2880,490C2800,490,2720,490,2640,490C2560,490,2480,490,2400,490C2320,490,2240,490,2160,490C2080,490,2000,490,1920,490C1840,490,1760,490,1680,490C1600,490,1520,490,1440,490C1360,490,1280,490,1200,490C1120,490,1040,490,960,490C880,490,800,490,720,490C640,490,560,490,480,490C400,490,320,490,240,490C160,490,80,490,40,490L0,490Z"></path></svg>