<svg width="26" height="26" viewBox="0 0 26 26" fill="none" xmlns="http://www.w3.org/2000/svg">
  <path d="M25 13C25 6.37258 19.6274 1 13 1C6.37258 1 1 6.37258 1 13C1 19.6274 6.37258 25 13 25C19.6274 25 25 19.6274 25 13Z" fill="#167FFB" fill-opacity="0.1"/>
  <path d="M24.5999 13.0004C24.5999 6.59389 19.4064 1.40039 12.9999 1.40039C6.5934 1.40039 1.3999 6.59389 1.3999 13.0004C1.3999 19.4069 6.5934 24.6004 12.9999 24.6004C19.4064 24.6004 24.5999 19.4069 24.5999 13.0004Z" stroke="#2196F3"/>
  <path d="M21 13.0007C21 8.58246 17.4183 5.00073 13 5.00073C8.58172 5.00073 5 8.58246 5 13.0007C5 17.419 8.58172 21.0007 13 21.0007C17.4183 21.0007 21 17.419 21 13.0007Z" fill="#2196F3"/>
</svg>
